<?xml version="1.0" encoding="UTF-8"?>
<svg width="329px" height="66px" viewBox="0 0 329 66" version="1.1" xmlns="http://www.w3.org/2000/svg" xmlns:xlink="http://www.w3.org/1999/xlink">
    <!-- Generator: Sketch 55.2 (78181) - https://sketchapp.com -->
    <title>Group Copy 3</title>
    <desc>Created with Sketch.</desc>
    <defs>
        <path d="M64.614,14.18 L64.614,16.46 C64.614,24.592 58.952,29.532 51.504,29.532 C43.144,29.532 37.14,23.376 37.14,15.738 C37.14,8.024 43.258,1.868 51.086,1.868 C56.178,1.868 60.472,4.376 62.714,7.948 L57.546,10.912 C56.444,9.164 54.05,7.796 51.048,7.796 C46.564,7.796 43.22,11.102 43.22,15.776 C43.22,20.298 46.412,23.604 51.58,23.604 C55.114,23.604 57.432,22.046 58.382,19.5 L51.276,19.5 L51.276,14.18 L64.614,14.18 Z M83.818,29 L78.802,20.26 L75.914,20.26 L75.914,29 L69.834,29 L69.834,2.4 L80.474,2.4 C85.528,2.4 89.594,6.466 89.594,11.52 C89.594,14.788 87.618,17.752 84.692,19.234 L90.354,29 L83.818,29 Z M75.914,8.1 L75.914,14.94 L80.474,14.94 C82.146,14.94 83.514,13.458 83.514,11.52 C83.514,9.582 82.146,8.1 80.474,8.1 L75.914,8.1 Z M111.914,29 L110.584,24.82 L100.704,24.82 L99.374,29 L92.724,29 L101.768,2.4 L109.52,2.4 L118.564,29 L111.914,29 Z M102.528,19.12 L108.76,19.12 L105.644,9.354 L102.528,19.12 Z M133.284,2.4 C140.618,2.4 146.204,8.176 146.204,15.7 C146.204,23.224 140.618,29 133.284,29 L122.644,29 L122.644,2.4 L133.284,2.4 Z M133.284,23.148 C137.464,23.148 140.352,20.26 140.352,15.7 C140.352,11.14 137.464,8.252 133.284,8.252 L128.724,8.252 L128.724,23.148 L133.284,23.148 Z M164.116,29.532 C156.098,29.532 150.284,23.528 150.284,15.7 C150.284,7.872 156.098,1.868 164.116,1.868 C168.942,1.868 173.198,4.262 175.516,8.024 L170.272,11.064 C169.094,9.012 166.814,7.796 164.116,7.796 C159.404,7.796 156.364,10.95 156.364,15.7 C156.364,20.45 159.404,23.604 164.116,23.604 C166.814,23.604 169.132,22.388 170.272,20.336 L175.516,23.376 C173.236,27.138 168.98,29.532 164.116,29.532 Z M194.15,29 L189.134,20.26 L186.246,20.26 L186.246,29 L180.166,29 L180.166,2.4 L190.806,2.4 C195.86,2.4 199.926,6.466 199.926,11.52 C199.926,14.788 197.95,17.752 195.024,19.234 L200.686,29 L194.15,29 Z M186.246,8.1 L186.246,14.94 L190.806,14.94 C192.478,14.94 193.846,13.458 193.846,11.52 C193.846,9.582 192.478,8.1 190.806,8.1 L186.246,8.1 Z M222.246,29 L220.916,24.82 L211.036,24.82 L209.706,29 L203.056,29 L212.1,2.4 L219.852,2.4 L228.896,29 L222.246,29 Z M212.86,19.12 L219.092,19.12 L215.976,9.354 L212.86,19.12 Z M244.718,29.532 C236.7,29.532 230.886,23.528 230.886,15.7 C230.886,7.872 236.7,1.868 244.718,1.868 C249.544,1.868 253.8,4.262 256.118,8.024 L250.874,11.064 C249.696,9.012 247.416,7.796 244.718,7.796 C240.006,7.796 236.966,10.95 236.966,15.7 C236.966,20.45 240.006,23.604 244.718,23.604 C247.416,23.604 249.734,22.388 250.874,20.336 L256.118,23.376 C253.838,27.138 249.582,29.532 244.718,29.532 Z M282.276,29 L275.36,29 L266.848,16.688 L266.848,29 L260.768,29 L260.768,2.4 L266.848,2.4 L266.848,13.952 L274.98,2.4 L281.896,2.4 L272.928,15.358 L282.276,29 Z M292.436,23.148 L303.076,23.148 L303.076,29 L286.356,29 L286.356,2.4 L302.886,2.4 L302.886,8.252 L292.436,8.252 L292.436,12.66 L301.936,12.66 L301.936,18.436 L292.436,18.436 L292.436,23.148 Z M322.28,29 L317.264,20.26 L314.376,20.26 L314.376,29 L308.296,29 L308.296,2.4 L318.936,2.4 C323.99,2.4 328.056,6.466 328.056,11.52 C328.056,14.788 326.08,17.752 323.154,19.234 L328.816,29 L322.28,29 Z M314.376,8.1 L314.376,14.94 L318.936,14.94 C320.608,14.94 321.976,13.458 321.976,11.52 C321.976,9.582 320.608,8.1 318.936,8.1 L314.376,8.1 Z" id="path-1"></path>
    </defs>
    <g id="Page-1" stroke="none" stroke-width="1" fill="none" fill-rule="evenodd">
        <g id="Artboard-Copy-8" transform="translate(-86.000000, -110.000000)">
            <g id="Group-Copy-3" transform="translate(86.000000, 110.000000)">
                <g id="GRADCRACKER" fill-rule="nonzero">
                    <use fill="#4A5568" xlink:href="#path-1"></use>
                    <use fill="#F7FAFC" xlink:href="#path-1"></use>
                </g>
                <path d="M41.359,61 L36.69,44.9 L38.392,44.9 L42.371,58.815 L46.557,44.9 L48.443,44.9 L52.629,58.815 L56.608,44.9 L58.31,44.9 L53.641,61 L51.709,61 L47.5,47.016 L43.291,61 L41.359,61 Z M66.982,49.224 C69.788,49.224 71.49,51.064 71.49,53.939 L71.49,61 L69.972,61 L69.972,53.939 C69.972,51.892 68.845,50.696 66.844,50.696 C64.82,50.696 63.118,51.892 63.118,54.974 L63.118,61 L61.6,61 L61.6,44.9 L63.118,44.9 L63.118,51.294 C64.015,49.845 65.349,49.224 66.982,49.224 Z M81.197,49.224 C84.716,49.224 86.901,52.145 86.901,55.296 C86.901,55.526 86.878,55.779 86.855,56.009 L76.758,56.009 C77.08,58.355 78.897,59.804 81.335,59.804 C83.152,59.804 84.417,58.953 85.038,57.849 L86.372,58.631 C85.406,60.195 83.635,61.276 81.312,61.276 C77.678,61.276 75.194,58.723 75.194,55.25 C75.194,51.869 77.632,49.224 81.197,49.224 Z M81.197,50.696 C78.782,50.696 77.057,52.283 76.758,54.537 L85.337,54.537 C85.015,52.007 83.175,50.696 81.197,50.696 Z M92.284,51.409 C93.089,49.799 94.446,49.316 95.918,49.316 L95.918,50.788 C94.078,50.788 92.284,51.754 92.284,54.606 L92.284,61 L90.766,61 L90.766,49.5 L92.284,49.5 L92.284,51.409 Z M104.061,49.224 C107.58,49.224 109.765,52.145 109.765,55.296 C109.765,55.526 109.742,55.779 109.719,56.009 L99.622,56.009 C99.944,58.355 101.761,59.804 104.199,59.804 C106.016,59.804 107.281,58.953 107.902,57.849 L109.236,58.631 C108.27,60.195 106.499,61.276 104.176,61.276 C100.542,61.276 98.058,58.723 98.058,55.25 C98.058,51.869 100.496,49.224 104.061,49.224 Z M104.061,50.696 C101.646,50.696 99.921,52.283 99.622,54.537 L108.201,54.537 C107.879,52.007 106.039,50.696 104.061,50.696 Z M126.925,50.972 L123.613,50.972 L123.613,57.941 C123.613,59.919 124.694,59.758 126.925,59.666 L126.925,61 C123.82,61.46 122.095,60.701 122.095,57.941 L122.095,50.972 L119.68,50.972 L119.68,49.5 L122.095,49.5 L122.095,46.74 L123.613,46.28 L123.613,49.5 L126.925,49.5 L126.925,50.972 Z M136.287,49.224 C139.093,49.224 140.795,51.064 140.795,53.939 L140.795,61 L139.277,61 L139.277,53.939 C139.277,51.892 138.15,50.696 136.149,50.696 C134.125,50.696 132.423,51.892 132.423,54.974 L132.423,61 L130.905,61 L130.905,44.9 L132.423,44.9 L132.423,51.294 C133.32,49.845 134.654,49.224 136.287,49.224 Z M150.502,49.224 C154.021,49.224 156.206,52.145 156.206,55.296 C156.206,55.526 156.183,55.779 156.16,56.009 L146.063,56.009 C146.385,58.355 148.202,59.804 150.64,59.804 C152.457,59.804 153.722,58.953 154.343,57.849 L155.677,58.631 C154.711,60.195 152.94,61.276 150.617,61.276 C146.983,61.276 144.499,58.723 144.499,55.25 C144.499,51.869 146.937,49.224 150.502,49.224 Z M150.502,50.696 C148.087,50.696 146.362,52.283 146.063,54.537 L154.642,54.537 C154.32,52.007 152.48,50.696 150.502,50.696 Z M172.561,61.276 C169.594,61.276 167.409,59.781 166.581,57.343 L167.961,56.538 C168.536,58.47 170.054,59.712 172.584,59.712 C175.022,59.712 176.379,58.539 176.379,56.814 C176.379,54.951 174.792,54.353 172.423,53.571 C169.801,52.697 167.271,52.007 167.271,49.04 C167.271,46.211 169.548,44.624 172.216,44.624 C174.861,44.624 176.701,46.188 177.529,48.097 L176.172,48.856 C175.574,47.407 174.332,46.188 172.216,46.188 C170.284,46.188 168.881,47.2 168.881,48.971 C168.881,50.719 170.261,51.271 172.446,51.984 C175.367,52.95 177.989,53.778 177.989,56.768 C177.989,59.528 175.781,61.276 172.561,61.276 Z M191.744,44.9 L191.744,46.418 L186.799,46.418 L186.799,61 L185.189,61 L185.189,46.418 L180.244,46.418 L180.244,44.9 L191.744,44.9 Z M197.104,59.482 L204.924,59.482 L204.924,61 L195.494,61 L195.494,44.9 L204.809,44.9 L204.809,46.418 L197.104,46.418 L197.104,52.122 L204.234,52.122 L204.234,53.64 L197.104,53.64 L197.104,59.482 Z M223.854,44.9 L223.854,61 L222.244,61 L222.244,47.338 L216.609,56.768 L216.379,56.768 L210.744,47.338 L210.744,61 L209.134,61 L209.134,44.9 L211.135,44.9 L216.494,53.87 L221.853,44.9 L223.854,44.9 Z M237.265,44.854 C237.886,44.854 238.369,45.36 238.369,45.958 C238.369,46.556 237.886,47.062 237.265,47.062 C236.644,47.062 236.161,46.556 236.161,45.958 C236.161,45.36 236.644,44.854 237.265,44.854 Z M236.506,61.92 L236.506,49.5 L238.024,49.5 L238.024,61.92 C238.024,64.68 236.529,66.106 233.884,65.876 L233.884,64.404 C235.655,64.588 236.506,63.898 236.506,61.92 Z M248.053,61.276 C244.695,61.276 242.004,58.654 242.004,55.25 C242.004,51.846 244.695,49.224 248.053,49.224 C251.411,49.224 254.102,51.846 254.102,55.25 C254.102,58.654 251.411,61.276 248.053,61.276 Z M248.053,59.804 C250.606,59.804 252.584,57.803 252.584,55.25 C252.584,52.697 250.606,50.696 248.053,50.696 C245.5,50.696 243.522,52.697 243.522,55.25 C243.522,57.803 245.5,59.804 248.053,59.804 Z M264.246,49.224 C267.489,49.224 270.18,51.846 270.18,55.25 C270.18,58.654 267.489,61.276 264.246,61.276 C262.199,61.276 260.566,60.287 259.6,58.746 L259.6,61 L258.082,61 L258.082,44.9 L259.6,44.9 L259.6,51.754 C260.566,50.213 262.199,49.224 264.246,49.224 Z M264.131,59.804 C266.684,59.804 268.662,57.803 268.662,55.25 C268.662,52.697 266.684,50.696 264.131,50.696 C261.578,50.696 259.6,52.697 259.6,55.25 C259.6,57.803 261.578,59.804 264.131,59.804 Z M275.126,52.513 C275.126,55.365 281.842,53.732 281.842,57.964 C281.842,59.919 280.14,61.276 277.679,61.276 C275.379,61.276 273.815,60.103 273.24,58.631 L274.528,57.872 C274.942,59.045 276.138,59.804 277.679,59.804 C279.036,59.804 280.324,59.321 280.324,57.964 C280.324,55.112 273.608,56.745 273.608,52.513 C273.608,50.673 275.241,49.224 277.541,49.224 C279.427,49.224 280.899,50.144 281.566,51.57 L280.301,52.306 C279.818,51.133 278.645,50.696 277.541,50.696 C276.345,50.696 275.126,51.271 275.126,52.513 Z M302.912,49.5 L304.43,49.5 L304.43,61 L302.912,61 L302.912,58.746 C301.946,60.287 300.313,61.276 298.266,61.276 C295.023,61.276 292.332,58.654 292.332,55.25 C292.332,51.846 295.023,49.224 298.266,49.224 C300.313,49.224 301.946,50.213 302.912,51.754 L302.912,49.5 Z M298.381,59.804 C300.934,59.804 302.912,57.803 302.912,55.25 C302.912,52.697 300.934,50.696 298.381,50.696 C295.828,50.696 293.85,52.697 293.85,55.25 C293.85,57.803 295.828,59.804 298.381,59.804 Z M310.618,51.409 C311.423,49.799 312.78,49.316 314.252,49.316 L314.252,50.788 C312.412,50.788 310.618,51.754 310.618,54.606 L310.618,61 L309.1,61 L309.1,49.5 L310.618,49.5 L310.618,51.409 Z M322.395,49.224 C325.914,49.224 328.099,52.145 328.099,55.296 C328.099,55.526 328.076,55.779 328.053,56.009 L317.956,56.009 C318.278,58.355 320.095,59.804 322.533,59.804 C324.35,59.804 325.615,58.953 326.236,57.849 L327.57,58.631 C326.604,60.195 324.833,61.276 322.51,61.276 C318.876,61.276 316.392,58.723 316.392,55.25 C316.392,51.869 318.83,49.224 322.395,49.224 Z M322.395,50.696 C319.98,50.696 318.255,52.283 317.956,54.537 L326.535,54.537 C326.213,52.007 324.373,50.696 322.395,50.696 Z" id="WheretheSTEMjobsare" fill="#F97316" fill-rule="nonzero"></path>
                <path d="M12.1816407,32 L9.00877863,32 L20.0272623,0 L23.2001243,0 L12.1816407,32 Z" id="Combined-Shape" fill="#F7FAFC"></path>
                <path d="M3.18164067,32 L0.00877863081,32 L11.0272623,0 L14.2001243,0 L3.18164067,32 Z" id="Combined-Shape" fill="#F97316"></path>
                <path d="M21.1816407,32 L18.0087786,32 L29.0272623,0 L32.2001243,0 L21.1816407,32 Z" id="Combined-Shape" fill="#F97316"></path>
            </g>
        </g>
    </g>
</svg>