<svg xmlns="http://www.w3.org/2000/svg" width="982" height="315" fill="none" viewBox="0 0 982 315"><path fill="#000" fill-rule="evenodd" d="M62.537 0h889.966c17.855 0 31.4 16.131 28.296 33.719l-33.776 191.584c-2.414 13.736-14.349 23.756-28.297 23.756h-68.742l-74.41 62.858c-6.227 5.269-15.767.824-15.767-7.318v-55.54H28.741c-17.855 0-31.4-16.131-28.297-33.718L34.24 23.756C36.654 10.02 48.59 0 62.537 0Z" clip-rule="evenodd"/><path fill="#fff" d="M256.594 98.552c2.28-13.737 11.859-50.578 61.192-50.578 43.701 0 45.789 28.718 44.122 44.965-.632 3.736-2.912 6.035-6.667 6.858l-24.561 5.211c-4.157.824-6.246-1.034-5.824-5.402.824-9.982-1.667-15.825-13.526-15.825-15.403 0-18.105 9.79-21.017 25.806l-5.211 29.964c-2.912 16.036-3.544 25.806 11.859 25.806 15.404 0 18.105-9.79 19.982-19.982h-12.069c-3.947 0-5.825-2.299-5.211-6.245l2.912-16.649c.823-4.157 3.544-6.246 7.491-6.246h41.631c4.157 0 5.824 2.089 5 6.246l-4.789 28.105c-2.491 13.737-11.86 50.579-61.192 50.579-49.333 0-45.789-36.842-43.298-50.579l9.157-52.034h.019ZM121.47 47.894c4.157 0 6.131 2.414 5.479 6.572l-9.637 54.716c-.651 4.157 1.322 6.571 5.48 6.571h21.017c4.368 0 7.012-2.414 7.663-6.571l9.637-54.716c.651-4.158 3.506-6.572 7.663-6.572h24.504c4.368 0 6.341 2.184 5.479 6.572l-24.734 140.048c-.651 4.157-3.276 6.571-7.663 6.571h-24.504c-4.157 0-6.13-2.414-5.479-6.571l6.131-34.581c.881-4.368-1.092-6.572-5.48-6.572H116.01c-4.158 0-6.782 2.184-7.664 6.572l-6.13 34.581c-.652 4.157-3.276 6.571-7.664 6.571H70.05c-4.158 0-6.131-2.414-5.48-6.571L89.303 54.466c.881-4.369 3.276-6.572 7.663-6.572h24.504ZM414.479 47.894c4.157 0 6.131 2.414 5.479 6.572l-9.636 54.716c-.652 4.157 1.322 6.571 5.479 6.571h21.017c4.368 0 7.012-2.414 7.663-6.571l9.637-54.716c.651-4.158 3.506-6.572 7.663-6.572h24.504c4.368 0 6.341 2.184 5.479 6.572l-24.733 140.048c-.652 4.157-3.276 6.571-7.664 6.571h-24.503c-4.158 0-6.131-2.414-5.48-6.571l6.131-34.581c.881-4.368-1.092-6.572-5.479-6.572h-21.017c-4.157 0-6.782 2.184-7.663 6.572l-6.131 34.581c-.651 4.157-3.276 6.571-7.663 6.571h-24.504c-4.157 0-6.131-2.414-5.479-6.571l24.733-140.048c.881-4.369 3.276-6.572 7.664-6.572h24.503ZM605.086 47.894c4.368 0 6.341 2.184 5.479 6.572l-4.368 24.503c-.651 4.158-3.276 6.572-7.663 6.572H545.58c-4.158 0-7.012 2.184-7.664 6.57l-1.322 7.013c-.651 4.157 1.322 6.571 5.48 6.571h33.91c4.368 0 6.131 2.184 5.479 6.572l-4.368 24.503c-.881 4.158-3.276 6.571-7.663 6.571h-33.911c-4.157 0-7.011 2.185-7.874 6.572l-1.092 7.012c-.881 4.157 1.092 6.571 5.25 6.571h52.954c4.368 0 6.341 2.184 5.479 6.571l-4.368 24.504c-.652 4.368-3.276 6.571-7.664 6.571h-91.902c-4.158 0-6.131-2.414-5.48-6.571l24.734-140.048c.881-4.368 3.506-6.571 7.663-6.571h91.903l-.038-.058ZM716.741 189.264c1.973 5.69-2.625 11.821-9.407 11.821H682.39c-2.184 0-3.947-1.092-4.598-3.065l-14.886-43.988c-.441-.652-.881-1.092-1.533-1.092h-8.755c-3.947 0-7.434 2.835-8.104 6.782l-6.131 34.581c-.651 3.946-3.946 6.782-7.874 6.782h-24.504c-3.946 0-6.341-2.836-5.69-6.782l24.734-139.627c.651-3.946 3.946-6.782 7.874-6.782h47.915c38.949 0 51.862 16.63 45.521 52.513-3.506 20.347-11.17 34.581-24.063 42.896-1.092.652-1.533 1.744-1.322 2.836l15.748 43.106.019.019ZM664.439 85.541c-3.947 0-7.223 2.835-7.875 6.782l-2.835 16.188c-.881 3.947 1.533 6.783 5.479 6.783h11.17c10.498 0 15.978-1.322 18.373-14.887 2.414-13.564-2.625-14.886-13.124-14.886h-11.169l-.019.02Z"/><path fill="#fff" fill-rule="evenodd" d="M785.846 54.465c.862-4.387-1.112-6.571-5.48-6.571h-24.063c-4.157 0-6.782 2.203-7.663 6.571l-2.816 16.783c-.652 4.157 1.322 6.571 5.479 6.571h8.372v9.025c0 1.264 1.475 1.954 2.452 1.15l12.387-10.175h.852c4.387 0 7.012-2.414 7.663-6.571l2.817-16.783Z" clip-rule="evenodd"/><path fill="#fff" d="M772.147 93.396c4.368 0 6.342 2.184 5.479 6.571l-16.514 94.566c-.652 4.158-3.276 6.572-7.663 6.572h-24.063c-4.158 0-6.131-2.414-5.48-6.572l16.515-94.566c.881-4.368 3.506-6.571 7.663-6.571h24.063ZM839.449 47.974c3.716 0 5.9 1.533 6.782 5.039l17.07 72.878c.44 1.973 2.184 1.533 2.625-.651l12.472-70.676c.881-4.368 3.506-6.571 7.663-6.571h24.504c4.368 0 6.341 2.184 5.479 6.571L891.31 194.612c-.651 4.158-3.276 6.572-7.663 6.572H851.48c-3.717 0-5.901-1.533-6.782-5.039l-16.859-72.879c-.652-1.973-2.414-1.532-2.836.652l-12.472 70.675c-.651 4.158-3.276 6.572-7.663 6.572h-24.504c-4.157 0-6.131-2.414-5.479-6.572l24.733-140.048c.882-4.368 3.506-6.571 7.664-6.571h32.167ZM244.269 47.894c4.369 0 6.342 2.184 5.48 6.571l-24.766 140.069c-.652 4.157-3.277 6.571-7.664 6.571h-24.063c-4.157 0-6.131-2.414-5.479-6.571l24.766-140.069c.881-4.368 3.506-6.571 7.663-6.571h24.063Z"/></svg>